HIERARCHY
ROOT Hips
{
	OFFSET 0.000000 0.000000 0.000000
	CHANNELS 6 Xposition Yposition Zposition Zrotation Yrotation Xrotation 
	JOINT LowerBack
	{
		OFFSET 0.000000 0.000000 0.000000
		CHANNELS 3 Zrotation Yrotation Xrotation
		JOINT Spine
		{
			OFFSET 0.028270 2.035590 -0.193380
			CHANNELS 3 Zrotation Yrotation Xrotation
			JOINT Spine1
			{
				OFFSET 0.056720 2.048850 -0.042750
				CHANNELS 3 Zrotation Yrotation Xrotation
				JOINT Neck
				{
					OFFSET 0.000000 0.000000 0.000000
					CHANNELS 3 Zrotation Yrotation Xrotation
					JOINT Neck1
					{
						OFFSET -0.054170 1.746240 0.172020
						CHANNELS 3 Zrotation Yrotation Xrotation
						JOINT Head
						{
							OFFSET 0.104070 1.761360 -0.123970
							CHANNELS 3 Zrotation Yrotation Xrotation
							End Site
							{
								OFFSET 0.000000 0.000000 0.000000
							}
						}
					}
				}
				JOINT LeftShoulder
				{
					OFFSET 0.000000 0.000000 0.000000
					CHANNELS 3 Zrotation Yrotation Xrotation
					JOINT LeftArm
					{
						OFFSET 3.362410 1.200890 -0.311210
						CHANNELS 3 Zrotation Yrotation Xrotation
						JOINT LeftForeArm
						{
							OFFSET 4.983000 -0.000000 -0.000000
							CHANNELS 3 Zrotation Yrotation Xrotation
							JOINT LeftHand
							{
								OFFSET 3.483560 -0.000000 -0.000000
								CHANNELS 3 Zrotation Yrotation Xrotation
								JOINT LeftFingerBase
								{
									OFFSET 0.000000 0.000000 0.000000
									CHANNELS 3 Zrotation Yrotation Xrotation
									JOINT LeftHandIndex1
									{
										OFFSET 0.715260 -0.000000 -0.000000
										CHANNELS 3 Zrotation Yrotation Xrotation
										End Site
										{
											OFFSET 0.000000 0.000000 0.000000
										}
									}
								}
								JOINT LThumb
								{
									OFFSET 0.000000 0.000000 0.000000
									CHANNELS 3 Zrotation Yrotation Xrotation
									End Site
									{
										OFFSET 0.000000 0.000000 0.000000
									}
								}
							}
						}
					}
				}
				JOINT RightShoulder
				{
					OFFSET 0.000000 0.000000 0.000000
					CHANNELS 3 Zrotation Yrotation Xrotation
					JOINT RightArm
					{
						OFFSET -3.136600 1.374050 -0.404650
						CHANNELS 3 Zrotation Yrotation Xrotation
						JOINT RightForeArm
						{
							OFFSET -5.241900 -0.000000 -0.000000
							CHANNELS 3 Zrotation Yrotation Xrotation
							JOINT RightHand
							{
								OFFSET -3.444170 -0.000000 -0.000000
								CHANNELS 3 Zrotation Yrotation Xrotation
								JOINT RightFingerBase
								{
									OFFSET 0.000000 0.000000 0.000000
									CHANNELS 3 Zrotation Yrotation Xrotation
									JOINT RightHandIndex1
									{
										OFFSET -0.622530 -0.000000 -0.000000
										CHANNELS 3 Zrotation Yrotation Xrotation
										End Site
										{
											OFFSET 0.000000 0.000000 0.000000
										}
									}
								}
								JOINT RThumb
								{
									OFFSET 0.000000 0.000000 0.000000
									CHANNELS 3 Zrotation Yrotation Xrotation
									End Site
									{
										OFFSET 0.000000 0.000000 0.000000
									}
								}
							}
						}
					}
				}
			}
		}
	}
}
}
MOTION
Frames: 17
Frame Time: 0.008333
3.935568 17.707328 0.783364 17.945824 83.853124 33.844311 -3.123722 5.023630 -8.288440 -2.358652 4.850542 -4.768794 -8.647554 5.040294 0.194005 9.066431 -3.584793 -7.853090 -2.822346 -0.226360 -0.054407 0.000000 0.000000 0.000000 7.432014 28.050139 -0.536414 -53.423976 22.192148 0.515028 -179.792598 -62.779682 179.929461 27.796307 -24.141165 -6.372314 -0.591595 0.768526 0.000000 0.000000 0.000000 0.000000 0.000000 0.000000 0.000000 2.305249 7.179363 -3.592044 96.538721 21.255195 49.113786 177.712103 64.371957 -179.870366 12.690793 21.719968 2.684432 -0.389632 -1.325414 0.000000 0.000000 0.000000 0.000000 0.000000 0.000000 0.000000 
4.197749 17.665188 0.800688 21.002062 84.207839 36.477194 -3.235101 4.896450 -8.047731 -2.379663 4.742580 -4.717056 -8.660278 4.939007 0.235700 9.213295 -3.818556 -7.950973 -2.862045 -0.228231 -0.082949 0.000000 0.000000 0.000000 7.414776 28.104947 -0.520673 -53.579556 22.657726 -0.331493 -179.818753 -62.117053 179.926945 27.822400 -24.054269 -6.357927 -0.594940 0.774560 0.000000 0.000000 0.000000 0.000000 0.000000 0.000000 0.000000 2.737487 7.048841 -3.580518 96.476571 21.293518 48.978390 177.666417 64.644320 -179.868410 12.584391 21.556338 2.640605 -0.379587 -1.320233 0.000000 0.000000 0.000000 0.000000 0.000000 0.000000 0.000000 
4.456345 17.613607 0.818247 24.871806 84.554725 39.888890 -3.359467 4.752092 -7.755675 -2.404224 4.622103 -4.658374 -8.671303 4.828623 0.251581 9.360823 -4.049388 -8.032635 -2.913435 -0.231175 -0.107910 0.000000 0.000000 0.000000 7.403149 28.066690 -0.505229 -53.840752 22.996985 -1.089738 -179.844676 -61.498785 179.924116 27.819052 -23.945695 -6.331023 -0.598075 0.781304 0.000000 0.000000 0.000000 0.000000 0.000000 0.000000 0.000000 3.219628 6.927638 -3.558262 96.335699 21.227753 48.651484 177.652144 64.957920 -179.867957 12.371734 21.456025 2.582712 -0.367328 -1.316945 -0.000000 0.000000 0.000000 0.000000 0.000000 0.000000 0.000000 
4.711287 17.552683 0.835707 29.368742 84.865257 43.900603 -3.480054 4.602415 -7.415248 -2.428939 4.499150 -4.593321 -8.679237 4.718742 0.242140 9.498178 -4.264808 -8.099049 -2.974832 -0.235031 -0.129478 0.000000 0.000000 0.000000 7.394049 27.955204 -0.492970 -54.203301 23.179268 -1.738104 -179.868906 -60.922477 179.921010 27.780812 -23.828576 -6.294104 -0.601054 0.789258 0.000000 0.000000 0.000000 0.000000 0.000000 0.000000 0.000000 3.724035 6.828238 -3.530012 96.126565 21.047943 48.119828 177.668691 65.302958 -179.868870 12.093168 21.403391 2.517337 -0.354592 -1.314634 -0.000000 0.000000 0.000000 0.000000 0.000000 0.000000 0.000000 
4.962671 17.482573 0.852688 34.233075 85.119094 48.266108 -3.584589 4.456516 -7.037558 -2.450494 4.380939 -4.523275 -8.682189 4.615808 0.211236 9.617121 -4.459442 -8.154049 -3.044575 -0.239610 -0.148577 0.000000 0.000000 0.000000 7.383233 27.793245 -0.487391 -54.661281 23.178419 -2.255774 -179.889875 -60.386789 179.917681 27.703013 -23.714209 -6.249463 -0.603947 0.798865 0.000000 0.000000 0.000000 0.000000 0.000000 0.000000 0.000000 4.230991 6.754286 -3.499285 95.858730 20.751693 47.384981 177.714458 65.676971 -179.871010 11.777150 21.390433 2.449168 -0.342404 -1.312580 -0.000000 0.000000 0.000000 0.000000 0.000000 0.000000 0.000000 
5.210733 17.403697 0.868874 39.163013 85.305510 52.702699 -3.667200 4.319595 -6.641169 -2.466349 4.270935 -4.450703 -8.678910 4.522326 0.164385 9.713120 -4.632026 -8.202112 -3.121196 -0.244747 -0.166273 0.000000 0.000000 0.000000 7.365925 27.600583 -0.491403 -55.206796 22.977642 -2.627821 -179.905984 -59.885451 179.914174 27.581900 -23.610782 -6.198399 -0.606915 0.810571 0.000000 0.000000 0.000000 0.000000 0.000000 0.000000 0.000000 4.726548 6.704613 -3.467962 95.541903 20.340750 46.451117 177.781217 66.070047 -179.873736 11.507864 21.398216 2.393477 -0.333563 -1.309740 0.000000 0.000000 0.000000 0.000000 0.000000 0.000000 0.000000 
5.455772 17.316732 0.884076 43.874970 85.422188 56.948510 -3.728959 4.192695 -6.247767 -2.475289 4.169227 -4.377865 -8.667655 4.437609 0.109938 9.785426 -4.790363 -8.250298 -3.203704 -0.250289 -0.184372 0.000000 0.000000 0.000000 7.336729 27.397280 -0.508365 -55.833742 22.564190 -2.844060 -179.915650 -59.418275 179.910555 27.412054 -23.522439 -6.141109 -0.609985 0.824635 0.000000 0.000000 0.000000 0.000000 0.000000 0.000000 0.000000 5.211037 6.666606 -3.436488 95.182097 19.826742 45.348637 177.867478 66.491297 -179.877066 11.262321 21.442207 2.346577 -0.326755 -1.306351 0.000000 0.000000 0.000000 0.000000 0.000000 0.000000 0.000000 
5.698067 17.222619 0.898272 48.121299 85.471060 60.778694 -3.775506 4.074797 -5.881958 -2.477242 4.074290 -4.307586 -8.646738 4.359490 0.056490 9.835481 -4.945568 -8.305246 -3.290967 -0.256098 -0.204519 0.000000 0.000000 0.000000 7.291078 27.196216 -0.540767 -56.538776 21.935185 -2.902433 -179.917587 -58.983198 179.906845 27.189835 -23.449081 -6.076695 -0.613203 0.841248 0.000000 0.000000 0.000000 0.000000 0.000000 0.000000 0.000000 5.687047 6.624534 -3.403594 94.783850 19.223251 44.106112 177.966250 66.944877 -179.880537 11.078440 21.528149 2.316958 -0.322657 -1.302244 0.000000 0.000000 0.000000 0.000000 0.000000 0.000000 0.000000 
5.937760 17.122553 0.911571 51.736788 85.456115 64.047199 -3.816710 3.962651 -5.563084 -2.473240 3.983130 -4.241425 -8.614265 4.284575 0.013593 9.866788 -5.113368 -8.373908 -3.381550 -0.262005 -0.228485 0.000000 0.000000 0.000000 7.224816 27.007824 -0.590491 -57.321719 21.089247 -2.805938 -179.910639 -58.583940 179.903062 26.912786 -23.386062 -6.003558 -0.616529 0.860431 0.000000 0.000000 0.000000 0.000000 0.000000 0.000000 0.000000 6.160583 6.556484 -3.367881 94.350154 18.550656 42.761278 178.072455 67.438362 -179.883944 10.957342 21.669649 2.305927 -0.320596 -1.297585 0.000000 0.000000 0.000000 0.000000 0.000000 0.000000 0.000000 
6.173549 17.017284 0.925479 54.803902 85.367894 66.831441 -3.886948 3.843606 -5.275639 -2.467671 3.886643 -4.173200 -8.563779 4.203796 -0.004316 9.878830 -5.298648 -8.465511 -3.472803 -0.267579 -0.259353 0.000000 0.000000 0.000000 7.141186 26.873140 -0.652865 -58.193273 19.976388 -2.560319 -179.892522 -58.244578 179.899078 26.584113 -23.322622 -5.919603 -0.620037 0.882323 0.000000 0.000000 0.000000 0.000000 0.000000 0.000000 0.000000 6.630406 6.444950 -3.334899 93.894773 17.852257 41.364794 178.185327 67.990748 -179.887489 10.858301 21.884372 2.306593 -0.318633 -1.292484 -0.000000 0.000000 0.000000 0.000000 0.000000 0.000000 0.000000 
6.404279 16.908082 0.941489 57.409991 85.194994 69.211181 -4.015102 3.703043 -5.002910 -2.464011 3.773071 -4.098893 -8.491488 4.105011 0.006461 9.870353 -5.484682 -8.578094 -3.563233 -0.272616 -0.297071 0.000000 0.000000 0.000000 7.032856 26.812343 -0.720297 -59.150844 18.583955 -2.189169 -179.860060 -57.976156 179.894881 26.212738 -23.246446 -5.824036 -0.624010 0.906753 0.000000 0.000000 0.000000 0.000000 0.000000 0.000000 0.000000 7.090668 6.296927 -3.308789 93.431811 17.152098 39.945703 178.302927 68.609271 -179.891053 10.802926 22.186633 2.325044 -0.317323 -1.286984 0.000000 0.000000 0.000000 0.000000 0.000000 0.000000 0.000000 
6.633248 16.799045 0.956693 59.248533 84.983265 70.919994 -4.147029 3.558971 -4.816054 -2.455725 3.653945 -4.033286 -8.406937 3.998922 0.038715 9.858593 -5.714639 -8.706853 -3.653357 -0.277560 -0.338601 0.000000 0.000000 0.000000 6.887879 26.741806 -0.809471 -60.186356 17.031535 -1.695203 -179.815778 -57.763158 179.890778 25.800534 -23.157961 -5.717152 -0.627956 0.932635 0.000000 0.000000 0.000000 0.000000 0.000000 0.000000 0.000000 7.567211 6.074462 -3.272755 92.916379 16.406677 38.519148 178.427778 69.288940 -179.895177 10.699133 22.577432 2.341312 -0.313484 -1.281429 -0.000000 0.000000 0.000000 0.000000 0.000000 0.000000 0.000000 
6.858190 16.691492 0.972921 60.624828 84.717017 72.253059 -4.320318 3.302358 -4.604145 -2.428686 3.440271 -3.878726 -8.187811 3.778689 0.321461 9.886235 -6.603659 -9.281549 -3.836165 -0.283227 -0.510626 0.000000 0.000000 0.000000 6.348267 27.028236 -1.184408 -61.271948 15.230695 -1.173847 -179.814270 -57.590665 179.885713 25.383372 -23.051000 -5.602483 -0.623727 0.951332 0.000000 0.000000 0.000000 0.000000 0.000000 0.000000 0.000000 9.507736 4.722895 -3.140416 91.420565 16.176659 39.822250 179.567256 73.836872 179.989888 -6.861835 34.836005 -2.310853 0.205032 -1.482445 -0.000000 0.000000 0.000000 0.000000 0.000000 0.000000 0.000000 
7.080761 16.588483 0.989465 61.617845 84.424953 73.243781 -4.493549 3.120171 -4.508176 -2.414911 3.283339 -3.818079 -8.083309 3.630897 0.389949 9.855951 -6.899795 -9.416721 -3.903112 -0.286260 -0.552510 0.000000 0.000000 0.000000 6.133767 26.931177 -1.292664 -62.451184 13.365058 -0.484395 -179.748055 -57.533090 179.881532 24.949308 -22.919945 -5.482577 -0.628073 0.978840 0.000000 0.000000 0.000000 0.000000 0.000000 0.000000 0.000000 9.847303 4.323085 -3.134078 90.995219 15.423489 38.459396 179.653823 74.467529 179.983191 -7.250080 34.561206 -2.417529 0.204979 -1.452710 -0.000000 0.000000 0.000000 0.000000 0.000000 0.000000 0.000000 
7.300670 16.492126 1.006720 62.395469 84.114178 74.065183 -4.686917 2.924093 -4.447005 -2.399905 3.113653 -3.759686 -7.970049 3.467883 0.470092 9.836219 -7.219401 -9.545804 -3.966697 -0.289113 -0.592479 0.000000 0.000000 0.000000 5.901717 26.788317 -1.411894 -63.692416 11.355403 0.314673 -179.669049 -57.586426 179.877380 24.536991 -22.772266 -5.364657 -0.633112 1.006539 0.000000 0.000000 0.000000 0.000000 0.000000 0.000000 0.000000 10.197360 3.854729 -3.116252 90.453807 14.611862 37.083182 179.742414 75.110302 179.976575 -7.663105 34.425120 -2.540414 0.204486 -1.423918 -0.000000 0.000000 0.000000 0.000000 0.000000 0.000000 0.000000 
7.518211 16.404791 1.024529 63.053954 83.805278 74.799335 -4.886475 2.716210 -4.409802 -2.382669 2.932030 -3.707807 -7.855563 3.290301 0.538060 9.840290 -7.552702 -9.648243 -4.030324 -0.292441 -0.624486 0.000000 0.000000 0.000000 5.662723 26.516754 -1.535316 -64.972989 9.299421 1.187850 -179.579527 -57.712758 179.873354 24.163652 -22.615104 -5.254304 -0.639322 1.034197 -0.000000 0.000000 0.000000 0.000000 0.000000 0.000000 0.000000 10.565270 3.340522 -3.075867 89.733260 13.681788 35.698672 179.826475 75.658627 179.969676 -8.038635 34.228792 -2.644630 0.202237 -1.395299 -0.000000 0.000000 0.000000 0.000000 0.000000 0.000000 0.000000 
7.734099 16.328273 1.043070 63.700406 83.504833 75.543895 -5.080656 2.500117 -4.390828 -2.360842 2.741863 -3.659996 -7.734808 3.101080 0.596982 9.828328 -7.904020 -9.719789 -4.081625 -0.295098 -0.647044 0.000000 0.000000 0.000000 5.413321 26.141054 -1.664321 -66.262700 7.158709 2.170743 -179.484954 -57.964098 179.869066 23.850309 -22.460941 -5.158747 -0.646177 1.061574 0.000000 0.000000 0.000000 0.000000 0.000000 0.000000 0.000000 10.866809 2.747908 -3.034210 89.010289 12.676537 34.285474 179.914235 76.217385 179.962709 -8.438558 34.214386 -2.770059 0.198844 -1.367492 -0.000000 0.000000 0.000000 0.000000 0.000000 0.000000 0.000000 
